# xmcd
#
# Track frame offsets: 
#        150
#        17063
#        34628
#        51875
#        69323
#        87120
#        103720
#        120465
#        136775
#        153135
#        169860
#        187853
#        205585
#        222850
#
# Disc length: 3194 seconds
#
# Revision: 0
# Processed by: cddbd v1.5.2PL0 Copyright (c) Steve Scherf et al.
# Submitted via: ExactAudioCopy v1.1
#
DISCID=aa0c780e
DTITLE=Everton Blender - World Corruption
DYEAR=2011
DGENRE=Reggae
TTITLE0=Coming Harder
TTITLE1=World Corruption
TTITLE2=Just Wanna Be
TTITLE3=The Man
TTITLE4=Live Up
TTITLE5=Bob Marley
TTITLE6=Piece A Di Blender
TTITLE7=Blow Your Nose
TTITLE8=Blen' Dem
TTITLE9=Material Girl
TTITLE10=Baa Baa White Sheep
TTITLE11=When You Wrong
TTITLE12=If You Want To Dance
TTITLE13=Blow Your Nose Part Ii
EXTD=
EXTT0=
EXTT1=
EXTT2=
EXTT3=
EXTT4=
EXTT5=
EXTT6=
EXTT7=
EXTT8=
EXTT9=
EXTT10=
EXTT11=
EXTT12=
EXTT13=
PLAYORDER=
